# xmcd CD database file
#
# Track frame offsets:
#	183
#	9483
#	16908
#	27483
#	30108
#	40383
#	43008
#	53133
#	60408
#	68808
#	76008
#	80058
#	85608
#	89658
#	97758
#	106533
#	113808
#	121008
#	127983
#	138258
#	143283
#	151008
#	160983
#	169308
#	177183
#	182058
#	193383
#	200508
#	206658
#	214608
#	221508
#	228033
#	234558
#	244983
#	252033
#	265758
#	271608
#	277758
#	292608
#	300333
#	309933
#	321558
#
# Disc length: 4445 seconds
#
# Revision: 0
# Processed by: cddbd v1.5.1PL0 Copyright (c) Steve Scherf et al.
# Submitted via: CDex 1.51
#
DISCID=1b115b2a
DTITLE=Sonoton Authentic Series - SAS 033 - Authentic USA 1
DYEAR=1991
DGENRE=Contentum
TTITLE0=The First Americans - Kiowa ear dance
TTITLE1=The First Americans - Pawnee contest
TTITLE2=The First Americans - Kiowa round dance 1
TTITLE3=The First Americans - Kiowa round dance 2
TTITLE4=The First Americans - Cherokee love song 1
TTITLE5=The First Americans - Cherokee love song 2
TTITLE6=The First Americans - Oklahoma stomp dance
TTITLE7=Early America - The Revolution - I gave my love a cherry
TTITLE8=Early America - The Revolution - Simple gifts 1
TTITLE9=Early America - The Revolution - Simple gifts 2
TTITLE10=Early America - The Revolution - Simple gifts 3
TTITLE11=Early America - The Revolution - Katie Cruel
TTITLE12=Early America - The Revolution - Yankee Doodle
TTITLE13=Appalachia - The Early Pioneers - John Hardy
TTITLE14=Appalachia - The Early Pioneers - Turkey in the straw 1
TTITLE15=Appalachia - The Early Pioneers - Turkey in the straw 2
TTITLE16=Appalachia - The Early Pioneers - Turkey in the straw 3
TTITLE17=Appalachia - The Early Pioneers - Old Dan Tucker
TTITLE18=Appalachia - The Early Pioneers - Old Joe Clark
TTITLE19=Appalachia - The Early Pioneers - Indian on a stump 1
TTITLE20=Appalachia - The Early Pioneers - Indian on a stump 2
TTITLE21=Appalachia - The Early Pioneers - Solider's Joy
TTITLE22=Appalachia - The Early Pioneers - Shakin' down the acorns
TTITLE23=Appalachia - The Early Pioneers - Morgan's fancy
TTITLE24=Appalachia - The Early Pioneers - Skip to my Lou
TTITLE25=Appalachia - The Early Pioneers - She'll be comin' round the mountain
TTITLE26=Appalachia - The Early Pioneers - Arkansas traveller
TTITLE27=Appalachia - The Early Pioneers - Southwind
TTITLE28=Appalachia - The Early Pioneers - Grandpa's waltz
TTITLE29=Appalachia - The Early Pioneers - Twin sisters
TTITLE30=Appalachia - The Early Pioneers - Hoedown
TTITLE31=Appalachia - The Early Pioneers - Stony point
TTITLE32=Appalachia - The Early Pioneers - Staggerlee 1
TTITLE33=Appalachia - The Early Pioneers - Staggerlee 2
TTITLE34=Appalachia - The Early Pioneers - Wayfaring stranger 1
TTITLE35=Appalachia - The Early Pioneers - Wayfaring stranger 2
TTITLE36=Appalachia - The Early Pioneers - Wayfaring stranger 3
TTITLE37=Appalachia - The Early Pioneers - Bright morning stars are rising
TTITLE38=Appalachia - The Early Pioneers - Leadbelly's waltz
TTITLE39=Appalachia - The Early Pioneers - Richard on the range
TTITLE40=Appalachia - The Early Pioneers - Ol' number nine
TTITLE41=Appalachia - The Early Pioneers - The longest train
EXTD=YEAR: 1991
EXTT0=
EXTT1=
EXTT2=
EXTT3=
EXTT4=
EXTT5=
EXTT6=
EXTT7=
EXTT8=
EXTT9=
EXTT10=
EXTT11=
EXTT12=
EXTT13=
EXTT14=
EXTT15=
EXTT16=
EXTT17=
EXTT18=
EXTT19=
EXTT20=
EXTT21=
EXTT22=
EXTT23=
EXTT24=
EXTT25=
EXTT26=
EXTT27=
EXTT28=
EXTT29=
EXTT30=
EXTT31=
EXTT32=
EXTT33=
EXTT34=
EXTT35=
EXTT36=
EXTT37=
EXTT38=
EXTT39=
EXTT40=
EXTT41=
PLAYORDER=
